<?xml version="1.0" encoding="UTF-8" standalone="no"?>
<!-- Generator: Adobe Illustrator 26.5.0, SVG Export Plug-In . SVG Version: 6.00 Build 0)  -->

<svg
   version="1.1"
   id="Layer_1"
   x="0px"
   y="0px"
   viewBox="0 0 570.5 570.5"
   xml:space="preserve"
   sodipodi:docname="Logo-CEA-LITEN.svg"
   width="570.5"
   height="570.5"
   inkscape:version="1.2.2 (b0a8486541, 2022-12-01)"
   xmlns:inkscape="http://www.inkscape.org/namespaces/inkscape"
   xmlns:sodipodi="http://sodipodi.sourceforge.net/DTD/sodipodi-0.dtd"
   xmlns="http://www.w3.org/2000/svg"
   xmlns:svg="http://www.w3.org/2000/svg"><defs
   id="defs33" /><sodipodi:namedview
   id="namedview31"
   pagecolor="#ffffff"
   bordercolor="#000000"
   borderopacity="0.25"
   inkscape:showpageshadow="2"
   inkscape:pageopacity="0.0"
   inkscape:pagecheckerboard="0"
   inkscape:deskcolor="#d1d1d1"
   showgrid="false"
   inkscape:zoom="1.0206467"
   inkscape:cx="484.49676"
   inkscape:cy="285.11336"
   inkscape:window-width="1920"
   inkscape:window-height="965"
   inkscape:window-x="0"
   inkscape:window-y="0"
   inkscape:window-maximized="1"
   inkscape:current-layer="g28" />
<style
   type="text/css"
   id="style2">
	.st0{fill:#E50019;}
	.st1{fill:#FFFFFF;}
</style>
<g
   id="g28">
	
	<rect
   class="st0"
   width="570.5"
   height="570.5"
   id="rect18"
   style="fill:#111111"
   x="0"
   y="0" />
	<g
   id="g24">
		<path
   class="st1"
   d="m 169.2,323.8 c 34.1,0 63,-18.7 68.2,-22.1 3.7,6.4 18.1,22.1 49.5,22.1 24.8,0 52.3,-12.3 61.5,-18.3 5.6,7.5 17.1,18.3 52.3,18.3 23.2,0 37.9,-8.1 47.2,-19.1 0.2,5.8 0.4,11.5 0.7,15.9 l 14.1,2.2 c -0.5,-14.6 -0.1,-65.4 -0.1,-66.2 0,-63.8 -48.5,-68.3 -58.6,-68.3 -15.8,0 -31,3.3 -47,9.6 l -1.1,16.8 c 6.2,-2.9 26.2,-11.5 46.1,-11.5 15.7,0 27.7,5.3 35.9,15.6 -53.9,28.4 -86.1,51.1 -90.9,70.1 -13.8,9.3 -38.1,20.1 -59.7,20.1 -23,0 -33,-10 -37.3,-15.7 59.1,-39.8 89.8,-62.7 86,-80.9 -3.4,-16.4 -27.7,-24 -49.4,-24 -22.3,0 -37.6,9.6 -44.8,17.1 -11.6,12 -17.2,29.8 -16.5,52.9 0.3,10.1 2.3,20.6 5.7,29.8 -9.1,5.9 -33.8,20.8 -62.2,20.8 -33.7,0 -47.6,-26.3 -47.6,-52.9 0,-25.8 13,-52.9 47.6,-52.9 19.5,0 39,8.2 45.7,11.3 l -1.1,-16.8 c -12.6,-4.9 -29.1,-9.4 -43.4,-9.4 -57.3,0 -62,48.1 -61.8,67.7 -0.5,19.7 4.7,67.8 61,67.8 z m 275.3,-92.4 c 1.8,4.6 3.4,10.5 4.3,16.1 0,0.3 3.9,30.1 -12,48.3 -8.2,9.4 -20.6,13.6 -36.3,13.7 -35.8,0.3 -39.3,-13.3 -39.3,-13.3 -3.7,-8.3 8.4,-25.1 83.3,-64.8 z M 250.7,216.3 c 8.2,-9.4 20.4,-14.2 36.1,-14.2 17,0 31.2,5.9 32.6,12.7 1.1,5.1 -3.7,11.6 -25.6,29.1 -0.2,0.2 -22.4,19 -50.9,35.9 -1.8,-4.6 -3.2,-9.7 -4.1,-15.2 -0.1,-0.2 -4,-30.1 11.9,-48.3 z"
   id="path20" />
		<rect
   x="121.9"
   y="368.29999"
   class="st1"
   width="326.79999"
   height="13.9"
   id="rect22" />
	</g>
	
</g>
</svg>
